<svg width="1000" height="1000" viewBox="0 0 1000 1000" fill="none" xmlns="http://www.w3.org/2000/svg">
<path d="M106.25 753.125H837.5V781.25H106.25V753.125Z" fill="#4357AD"/>
<path d="M781.25 921.875H153.125V950H781.25V921.875Z" fill="#4357AD"/>
<path d="M893.75 837.5H209.375V865.625H893.75V837.5Z" fill="#4357AD"/>
<path d="M480.581 98.8079L481.255 98.8947L481.908 99.0201L482.562 99.184L483.197 99.3769L483.832 99.5988L484.447 99.8592L485.043 100.158L485.63 100.486L486.197 100.843L486.745 101.229L487.264 101.644L487.774 102.087L488.255 102.56L488.707 103.061L489.13 103.592L489.524 104.151L489.889 104.73L490.226 105.338L490.524 105.965L490.793 106.611L491.024 107.286L491.216 107.99L491.361 108.704L491.476 109.447L491.534 110.199L491.562 110.98L491.053 331.221V696.875H266.604L265.518 695.525L259.941 688.146L254.585 680.565L249.479 672.81L244.604 664.862L239.979 656.731L235.613 648.436L231.498 639.968L227.651 631.325L224.074 622.529L220.776 613.578L217.757 604.463L215.026 595.213L145.861 345.371L145.572 344.252L145.322 343.124L145.12 342.005L144.947 340.876L144.822 339.748L144.736 338.629L144.697 337.5L144.688 336.382L144.716 335.272L144.793 334.163L144.899 333.054L145.043 331.964L145.226 330.874L145.447 329.794L145.707 328.723L145.995 327.662L146.322 326.62L146.688 325.579L147.082 324.556L147.515 323.553L147.976 322.56L148.476 321.586L149.005 320.631L149.572 319.685L150.168 318.76L150.793 317.863L151.457 316.985L152.149 316.117L152.87 315.287L153.62 314.467L154.399 313.686L155.207 312.914L156.044 312.181L156.919 311.468L157.813 310.792L158.736 310.137L159.688 309.51L160.659 308.921L161.659 308.362L162.688 307.831L170.65 303.935L178.602 299.999L186.525 296.016L194.42 291.984L202.285 287.895L210.122 283.766L217.93 279.571L225.709 275.336L233.459 271.044L241.171 266.704L248.863 262.315L256.527 257.869L264.152 253.374L271.758 248.831L279.326 244.24L286.865 239.6L294.374 234.903L301.846 230.167L309.288 225.374L316.702 220.532L324.077 215.642L331.423 210.713L338.741 205.726L346.02 200.691L353.27 195.599L360.492 190.467L367.674 185.288L374.819 180.06L381.934 174.794L389.012 169.469L396.06 164.097L403.07 158.676L410.041 153.217L416.983 147.7L423.888 142.144L430.753 136.54L437.59 130.888L444.378 125.188L451.138 119.449L457.869 113.662L464.552 107.826L471.418 101.788L472.014 101.296L472.629 100.843L473.254 100.438L473.889 100.081L474.543 99.7724L475.197 99.5023L475.86 99.2708L476.533 99.0876L477.206 98.9429L477.879 98.8368L478.562 98.7693L479.235 98.75L479.918 98.7596L480.581 98.8079Z" fill="#4357AD"/>
<path d="M522.788 50.0577L523.498 50.1442L524.199 50.2884L524.899 50.4614L525.59 50.6825L526.271 50.9517L526.933 51.2689L527.595 51.6343L528.238 52.0476L528.861 52.4994L529.466 53.0089L530.051 53.5665L530.617 54.1721L535.386 59.6421L542.409 67.6307L549.499 75.5616L556.647 83.4349L563.853 91.2408L571.125 98.9891L578.456 106.68L585.843 114.303L593.298 121.869L600.811 129.367L608.381 136.808L616.009 144.191L623.694 151.497L631.437 158.745L639.237 165.936L647.095 173.059L655.01 180.115L662.983 187.104L671.014 194.035L679.102 200.889L687.238 207.686L695.432 214.415L703.674 221.077L711.973 227.672L720.33 234.199L728.735 240.669L737.197 247.062L745.707 253.378L754.275 259.636L762.891 265.827L771.555 271.941L780.276 277.997L789.046 283.967L797.863 289.879L806.728 295.714L815.642 301.482L824.603 307.183L833.612 312.807L842.679 318.354L851.784 323.833L860.938 329.245L842.861 318.661L843.648 319.142L844.416 319.642L845.164 320.171L845.884 320.718L846.584 321.286L847.265 321.882L847.927 322.487L848.561 323.112L849.175 323.766L849.769 324.429L850.336 325.112L850.873 325.814L851.391 326.525L851.89 327.265L852.36 328.005L852.801 328.765L853.224 329.543L853.617 330.322L853.991 331.12L854.327 331.927L854.643 332.754L854.941 333.581L855.2 334.417L855.44 335.273L855.651 336.128L855.833 336.984L855.987 337.859L856.112 338.734L856.207 339.609L856.275 340.503L856.313 341.387L856.332 342.281L856.313 343.175L856.265 344.069L856.188 344.973L856.073 345.867L855.939 346.77L855.766 347.664L855.565 348.568L855.334 349.462L784.795 603.953L782.071 613.172L779.067 622.257L775.767 631.178L772.207 639.945L768.36 648.559L764.263 656.999L759.898 665.276L755.283 673.371L750.428 681.292L745.324 689.021L739.989 696.577L739.759 696.875H509.375V340.839L509.394 62.1511L509.413 61.3244L509.49 60.5169L509.615 59.7382L509.788 58.9788L509.999 58.2482L510.258 57.5464L510.555 56.8639L510.891 56.2102L511.265 55.5853L511.678 54.9893L512.109 54.4317L512.589 53.8934L513.088 53.3935L513.616 52.9224L514.172 52.4802L514.748 52.0765L515.343 51.7015L515.957 51.3651L516.59 51.0575L517.243 50.7979L517.914 50.5672L518.586 50.3749L519.277 50.2211L519.967 50.1057L520.668 50.0385L521.378 50L522.078 50.0096L522.788 50.0577Z" fill="#4357AD"/>
<path d="M50 668.75H950V696.875H50V668.75Z" fill="#4357AD"/>
</svg>
